<svg width="33" height="34" viewBox="0 0 33 34" fill="none" xmlns="http://www.w3.org/2000/svg">
<mask id="path-1-outside-1_114_149" maskUnits="userSpaceOnUse" x="0" y="0.711334" width="33" height="33" fill="black">
<rect fill="white" y="0.711334" width="33" height="33"/>
<path d="M16.4627 1.71275C7.88677 1.59693 0.885586 8.59777 1.00142 17.1733C1.11578 25.3976 7.81273 32.0942 16.0375 32.2086C24.6148 32.3259 31.6146 25.325 31.4973 16.7495C31.3844 8.52373 24.6874 1.82711 16.4627 1.71275ZM25.7306 25.7026C25.7014 25.7341 25.6656 25.7589 25.6258 25.7751C25.5859 25.7913 25.543 25.7986 25.5001 25.7963C25.4571 25.7941 25.4152 25.7824 25.3772 25.7622C25.3393 25.7419 25.3063 25.7136 25.2805 25.6791C24.6248 24.8212 23.8217 24.0867 22.9089 23.5099C21.0424 22.3121 18.6774 21.6523 16.2501 21.6523C13.8227 21.6523 11.4577 22.3121 9.59125 23.5099C8.67843 24.0865 7.8754 24.8207 7.21964 25.6784C7.19388 25.7128 7.16086 25.7412 7.12291 25.7614C7.08497 25.7817 7.04303 25.7933 7.00007 25.7956C6.95712 25.7978 6.9142 25.7906 6.87435 25.7744C6.83451 25.7582 6.79872 25.7334 6.76951 25.7018C4.61834 23.3797 3.39978 20.3455 3.34736 17.1806C3.22787 10.0471 9.08174 4.07618 16.2185 4.05858C23.3554 4.04099 29.1528 9.83593 29.1528 16.9607C29.1552 20.2019 27.9329 23.3243 25.7306 25.7026Z"/>
</mask>
<path d="M16.4627 1.71275C7.88677 1.59693 0.885586 8.59777 1.00142 17.1733C1.11578 25.3976 7.81273 32.0942 16.0375 32.2086C24.6148 32.3259 31.6146 25.325 31.4973 16.7495C31.3844 8.52373 24.6874 1.82711 16.4627 1.71275ZM25.7306 25.7026C25.7014 25.7341 25.6656 25.7589 25.6258 25.7751C25.5859 25.7913 25.543 25.7986 25.5001 25.7963C25.4571 25.7941 25.4152 25.7824 25.3772 25.7622C25.3393 25.7419 25.3063 25.7136 25.2805 25.6791C24.6248 24.8212 23.8217 24.0867 22.9089 23.5099C21.0424 22.3121 18.6774 21.6523 16.2501 21.6523C13.8227 21.6523 11.4577 22.3121 9.59125 23.5099C8.67843 24.0865 7.8754 24.8207 7.21964 25.6784C7.19388 25.7128 7.16086 25.7412 7.12291 25.7614C7.08497 25.7817 7.04303 25.7933 7.00007 25.7956C6.95712 25.7978 6.9142 25.7906 6.87435 25.7744C6.83451 25.7582 6.79872 25.7334 6.76951 25.7018C4.61834 23.3797 3.39978 20.3455 3.34736 17.1806C3.22787 10.0471 9.08174 4.07618 16.2185 4.05858C23.3554 4.04099 29.1528 9.83593 29.1528 16.9607C29.1552 20.2019 27.9329 23.3243 25.7306 25.7026Z" fill="url(#paint0_linear_114_149)"/>
<path d="M16.4627 1.71275L16.4766 0.712848L16.4762 0.712842L16.4627 1.71275ZM1.00142 17.1733L0.001508 17.1868L0.00151354 17.1872L1.00142 17.1733ZM16.0375 32.2086L16.0236 33.2085L16.0238 33.2085L16.0375 32.2086ZM31.4973 16.7495L32.4972 16.7359L32.4972 16.7358L31.4973 16.7495ZM25.7306 25.7026L24.9969 25.0231L24.9964 25.0236L25.7306 25.7026ZM25.2805 25.6791L26.0813 25.0801L26.075 25.0718L25.2805 25.6791ZM22.9089 23.5099L22.3688 24.3516L22.3747 24.3553L22.9089 23.5099ZM9.59125 23.5099L10.1253 24.3554L10.1314 24.3515L9.59125 23.5099ZM7.21964 25.6784L6.4252 25.0709L6.41886 25.0794L7.21964 25.6784ZM6.76951 25.7018L7.5037 25.0229L7.5031 25.0222L6.76951 25.7018ZM3.34736 17.1806L4.34723 17.164L4.34722 17.1638L3.34736 17.1806ZM29.1528 16.9607H28.1528V16.9614L29.1528 16.9607ZM16.4762 0.712842C7.33751 0.589416 -0.121926 8.04842 0.00150812 17.1868L2.00133 17.1598C1.8931 9.14713 8.43603 2.60443 16.4492 2.71266L16.4762 0.712842ZM0.00151354 17.1872C0.123408 25.953 7.25746 33.0866 16.0236 33.2085L16.0514 31.2087C8.36799 31.1019 2.10816 24.8423 2.00132 17.1594L0.00151354 17.1872ZM16.0238 33.2085C25.1641 33.3335 32.6222 25.8743 32.4972 16.7359L30.4974 16.7632C30.6069 24.7758 24.0656 31.3183 16.0511 31.2087L16.0238 33.2085ZM32.4972 16.7358C32.3768 7.96845 25.2427 0.834735 16.4766 0.712848L16.4488 2.71265C24.1321 2.81949 30.3919 9.07902 30.4974 16.7633L32.4972 16.7358ZM24.9964 25.0236C25.0668 24.9475 25.1531 24.8878 25.2491 24.8488L26.0024 26.7015C26.1782 26.63 26.336 26.5208 26.4648 26.3815L24.9964 25.0236ZM25.2491 24.8488C25.3451 24.8097 25.4486 24.7923 25.5521 24.7977L25.448 26.795C25.6375 26.8048 25.8267 26.7729 26.0024 26.7015L25.2491 24.8488ZM25.5521 24.7977C25.6556 24.8031 25.7567 24.8312 25.8481 24.88L24.9063 26.6443C25.0737 26.7337 25.2586 26.7851 25.448 26.795L25.5521 24.7977ZM25.8481 24.88C25.9396 24.9288 26.0192 24.9972 26.0813 25.0802L24.4797 26.2781C24.5933 26.43 24.739 26.555 24.9063 26.6443L25.8481 24.88ZM26.075 25.0718C25.3473 24.1198 24.4561 23.3047 23.4431 22.6646L22.3747 24.3553C23.1874 24.8688 23.9023 25.5227 24.486 26.2864L26.075 25.0718ZM23.449 22.6683C21.4062 21.3574 18.8501 20.6523 16.2501 20.6523V22.6523C18.5047 22.6523 20.6786 23.2668 22.3688 24.3515L23.449 22.6683ZM16.2501 20.6523C13.6501 20.6523 11.0939 21.3574 9.05114 22.6683L10.1314 24.3515C11.8216 23.2668 13.9954 22.6523 16.2501 22.6523V20.6523ZM9.05724 22.6645C8.0442 23.3043 7.153 24.1192 6.42524 25.071L8.01404 26.2858C8.5978 25.5223 9.31266 24.8687 10.1253 24.3554L9.05724 22.6645ZM6.41886 25.0794C6.48096 24.9964 6.56056 24.9281 6.65199 24.8793L7.59383 26.6436C7.76115 26.5543 7.9068 26.4292 8.02043 26.2773L6.41886 25.0794ZM6.65199 24.8793C6.74343 24.8304 6.8445 24.8023 6.94803 24.7969L7.05212 26.7942C7.24156 26.7844 7.4265 26.7329 7.59383 26.6436L6.65199 24.8793ZM6.94803 24.7969C7.05158 24.7915 7.15502 24.809 7.25102 24.848L6.49769 26.7007C6.67337 26.7722 6.86265 26.8041 7.05212 26.7942L6.94803 24.7969ZM7.25102 24.848C7.34705 24.8871 7.43332 24.9468 7.5037 25.0229L6.03533 26.3808C6.16412 26.5201 6.32197 26.6293 6.49769 26.7007L7.25102 24.848ZM7.5031 25.0222C5.5193 22.8808 4.39556 20.0827 4.34723 17.164L2.3475 17.1972C2.40399 20.6083 3.71737 23.8786 6.03592 26.3814L7.5031 25.0222ZM4.34722 17.1638C4.23707 10.5879 9.6423 5.0748 16.221 5.05858L16.2161 3.05859C8.52118 3.07756 2.21867 9.50624 2.3475 17.1973L4.34722 17.1638ZM16.221 5.05858C22.804 5.04235 28.1528 10.3886 28.1528 16.9607H30.1528C30.1528 9.28327 23.9067 3.03963 16.2161 3.05859L16.221 5.05858ZM28.1528 16.9614C28.155 19.9504 27.0278 22.8299 24.9969 25.0231L26.4644 26.382C28.838 23.8188 30.1554 20.4533 30.1528 16.9599L28.1528 16.9614Z" fill="url(#paint1_linear_114_149)" mask="url(#path-1-outside-1_114_149)"/>
<path d="M15.9125 7.99999C14.1976 7.99999 12.6471 8.57496 11.5453 9.61985C10.4435 10.6647 9.893 12.1095 10.0174 13.6601C10.2695 16.7139 12.914 19.2036 15.9125 19.2036C18.9109 19.2036 21.5502 16.7139 21.8076 13.6609C21.9363 12.1251 21.3902 10.6935 20.2701 9.62918C19.164 8.57885 17.6161 7.99999 15.9125 7.99999Z" fill="url(#paint2_linear_114_149)"/>
<defs>
<linearGradient id="paint0_linear_114_149" x1="16.2494" y1="3.50101" x2="16.2494" y2="33.9997" gradientUnits="userSpaceOnUse">
<stop stop-color="#FFBA08"/>
<stop offset="1" stop-color="#D00000"/>
</linearGradient>
<linearGradient id="paint1_linear_114_149" x1="16.2494" y1="3.50101" x2="16.2494" y2="33.9997" gradientUnits="userSpaceOnUse">
<stop stop-color="#FFBA08"/>
<stop offset="1" stop-color="#D00000"/>
</linearGradient>
<linearGradient id="paint2_linear_114_149" x1="14.5834" y1="5.89465" x2="14.5834" y2="17.0983" gradientUnits="userSpaceOnUse">
<stop stop-color="#FFBA08"/>
<stop offset="1" stop-color="#D00000"/>
</linearGradient>
</defs>
</svg>
