<svg width="31" height="32" viewBox="0 0 31 32" fill="none" xmlns="http://www.w3.org/2000/svg">
<path d="M15.4627 0.712751C6.88677 0.596925 -0.114414 7.59777 0.00141688 16.1733C0.115782 24.3976 6.81273 31.0942 15.0375 31.2086C23.6148 31.3259 30.6146 24.325 30.4973 15.7495C30.3844 7.52373 23.6874 0.82711 15.4627 0.712751ZM24.7306 24.7026C24.7014 24.7341 24.6656 24.7589 24.6258 24.7751C24.5859 24.7913 24.543 24.7986 24.5001 24.7963C24.4571 24.7941 24.4152 24.7824 24.3772 24.7622C24.3393 24.7419 24.3063 24.7136 24.2805 24.6791C23.6248 23.8212 22.8217 23.0867 21.9089 22.5099C20.0424 21.3121 17.6774 20.6523 15.2501 20.6523C12.8227 20.6523 10.4577 21.3121 8.59125 22.5099C7.67843 23.0865 6.8754 23.8207 6.21964 24.6784C6.19388 24.7128 6.16086 24.7412 6.12291 24.7614C6.08497 24.7817 6.04303 24.7933 6.00007 24.7956C5.95712 24.7978 5.9142 24.7906 5.87435 24.7744C5.83451 24.7582 5.79872 24.7334 5.76951 24.7018C3.61834 22.3797 2.39978 19.3455 2.34736 16.1806C2.22787 9.04706 8.08174 3.07618 15.2185 3.05858C22.3554 3.04099 28.1528 8.83593 28.1528 15.9607C28.1552 19.2019 26.9329 22.3243 24.7306 24.7026Z" fill="url(#paint0_linear_114_149)"/>
<path d="M14.9125 6.99999C13.1976 6.99999 11.6471 7.57496 10.5453 8.61985C9.44346 9.66474 8.893 11.1095 9.01735 12.6601C9.26954 15.7139 11.914 18.2036 14.9125 18.2036C17.9109 18.2036 20.5502 15.7139 20.8076 12.6609C20.9363 11.1251 20.3902 9.69353 19.2701 8.62918C18.164 7.57885 16.6161 6.99999 14.9125 6.99999Z" fill="url(#paint1_linear_114_149)"/>
<defs>
<linearGradient id="paint0_linear_114_149" x1="15.2494" y1="2.50101" x2="15.2494" y2="32.9997" gradientUnits="userSpaceOnUse">
<stop stop-color="#FFBA08"/>
<stop offset="1" stop-color="#D00000"/>
</linearGradient>
<linearGradient id="paint1_linear_114_149" x1="13.5834" y1="4.89465" x2="13.5834" y2="16.0983" gradientUnits="userSpaceOnUse">
<stop stop-color="#FFBA08"/>
<stop offset="1" stop-color="#D00000"/>
</linearGradient>
</defs>
</svg>
