<svg width="41" height="41" viewBox="0 0 41 41" fill="none" xmlns="http://www.w3.org/2000/svg">
<path d="M10.25 24.3438C12.3728 24.3438 14.0938 22.6228 14.0938 20.5C14.0938 18.3772 12.3728 16.6562 10.25 16.6562C8.12716 16.6562 6.40625 18.3772 6.40625 20.5C6.40625 22.6228 8.12716 24.3438 10.25 24.3438Z" stroke="black" stroke-width="3" stroke-linecap="round" stroke-linejoin="round"/>
<path d="M30.75 12.8125C32.8728 12.8125 34.5938 11.0916 34.5938 8.96875C34.5938 6.84591 32.8728 5.125 30.75 5.125C28.6272 5.125 26.9062 6.84591 26.9062 8.96875C26.9062 11.0916 28.6272 12.8125 30.75 12.8125Z" stroke="black" stroke-width="3" stroke-linecap="round" stroke-linejoin="round"/>
<path d="M30.75 35.875C32.8728 35.875 34.5938 34.1541 34.5938 32.0312C34.5938 29.9084 32.8728 28.1875 30.75 28.1875C28.6272 28.1875 26.9062 29.9084 26.9062 32.0312C26.9062 34.1541 28.6272 35.875 30.75 35.875Z" stroke="black" stroke-width="3" stroke-linecap="round" stroke-linejoin="round"/>
<path d="M27.4003 10.853L13.5996 18.6158M13.5996 22.3842L27.4003 30.147L13.5996 22.3842Z" stroke="black" stroke-width="3" stroke-linecap="round" stroke-linejoin="round"/>
</svg>
