<svg width="1920" height="510" viewBox="0 0 1920 510" fill="none" xmlns="http://www.w3.org/2000/svg">
<rect x="-116.733" y="115.024" width="253" height="128" rx="9" transform="rotate(-18.6145 -116.733 115.024)" stroke="url(#paint0_linear_31_8)" stroke-width="2"/>
<rect x="-49" y="237.396" width="516.659" height="130" transform="rotate(-18.6145 -49 237.396)" fill="url(#paint1_linear_31_8)"/>
<rect x="-87.3121" y="386.783" width="410.856" height="130" transform="rotate(-18.6145 -87.3121 386.783)" fill="url(#paint2_linear_31_8)"/>
<rect x="1961.88" y="123.287" width="410.856" height="130" transform="rotate(161.507 1961.88 123.287)" fill="url(#paint3_linear_31_8)"/>
<rect x="1536" y="268.488" width="455.791" height="130" rx="10" transform="rotate(-18.6145 1536 268.488)" fill="url(#paint4_linear_31_8)"/>
<rect x="1774.27" y="325.068" width="152.888" height="128" rx="9" transform="rotate(-18.6145 1774.27 325.068)" stroke="url(#paint5_linear_31_8)" stroke-width="2"/>
<defs>
<linearGradient id="paint0_linear_31_8" x1="160.217" y1="174.976" x2="29.9508" y2="168.559" gradientUnits="userSpaceOnUse">
<stop stop-color="#D10000"/>
<stop offset="1" stop-color="#D10000" stop-opacity="0"/>
</linearGradient>
<linearGradient id="paint1_linear_31_8" x1="-690.726" y1="284.885" x2="177.41" y2="290.397" gradientUnits="userSpaceOnUse">
<stop stop-color="#D10000" stop-opacity="0.28"/>
<stop offset="1" stop-color="#D10000" stop-opacity="0"/>
</linearGradient>
<linearGradient id="paint2_linear_31_8" x1="-335.591" y1="460.039" x2="112.251" y2="447.159" gradientUnits="userSpaceOnUse">
<stop stop-color="#D10000"/>
<stop offset="1" stop-color="#D10000" stop-opacity="0.1"/>
</linearGradient>
<linearGradient id="paint3_linear_31_8" x1="1713.6" y1="196.543" x2="2161.44" y2="183.664" gradientUnits="userSpaceOnUse">
<stop stop-color="#D10000"/>
<stop offset="1" stop-color="#D10000" stop-opacity="0.1"/>
</linearGradient>
<linearGradient id="paint4_linear_31_8" x1="3448.47" y1="357.796" x2="1751.81" y2="148.806" gradientUnits="userSpaceOnUse">
<stop stop-color="#D10000"/>
<stop offset="1" stop-color="#D10000" stop-opacity="0"/>
</linearGradient>
<linearGradient id="paint5_linear_31_8" x1="1703.51" y1="339.658" x2="1881.14" y2="416.901" gradientUnits="userSpaceOnUse">
<stop stop-color="#D10000"/>
<stop offset="1" stop-color="#D10000" stop-opacity="0"/>
</linearGradient>
</defs>
</svg>
