<svg width="35" height="32" viewBox="0 0 35 32" fill="none" xmlns="http://www.w3.org/2000/svg">
<g clip-path="url(#clip0_140_7)">
<path d="M32.1825 17.749C30.6325 17.749 29.3759 18.8979 29.3759 20.3151V26.8678H5.61323V20.3151C5.61323 18.8979 4.35662 17.749 2.80662 17.749C1.25662 17.749 0 18.8979 0 20.3151V29.4339C0 30.851 1.25662 31.9999 2.80662 31.9999H32.1825C33.7325 31.9999 34.9892 30.851 34.9892 29.4339V20.3151C34.9892 18.8979 33.7325 17.749 32.1825 17.749Z" fill="url(#paint0_linear_140_7)"/>
<path d="M11.5548 11.6255L14.6878 8.76107V18.3217C14.6878 19.7389 15.9444 20.8878 17.4944 20.8878C19.0444 20.8878 20.301 19.7389 20.301 18.3217V8.76098L23.4339 11.6254C23.9819 12.1264 24.7002 12.377 25.4185 12.377C26.1368 12.377 26.855 12.1264 27.4031 11.6254C28.4991 10.6233 28.4991 8.9986 27.4031 7.99647L19.4789 0.75166C18.383 -0.250553 16.6058 -0.250553 15.5098 0.75166L7.58573 7.99656C6.48965 8.99868 6.48965 10.6233 7.58573 11.6255C8.68171 12.6276 10.4589 12.6276 11.5548 11.6255Z" fill="url(#paint1_linear_140_7)"/>
</g>
<defs>
<linearGradient id="paint0_linear_140_7" x1="17.4946" y1="17.749" x2="17.4946" y2="31.9999" gradientUnits="userSpaceOnUse">
<stop offset="0.1875" stop-color="#FFBA08"/>
<stop offset="1" stop-color="#D00000"/>
</linearGradient>
<linearGradient id="paint1_linear_140_7" x1="17.4944" y1="0" x2="17.4944" y2="20.8878" gradientUnits="userSpaceOnUse">
<stop offset="0.1875" stop-color="#FFBA08"/>
<stop offset="1" stop-color="#D00000"/>
</linearGradient>
<clipPath id="clip0_140_7">
<rect width="34.9892" height="31.9999" fill="white"/>
</clipPath>
</defs>
</svg>
