<svg width="155" height="135" viewBox="0 0 155 135" fill="none" xmlns="http://www.w3.org/2000/svg">
<path d="M8.06075 37.7417L12.2973 37.6188L31.9492 80.8853L49.0933 36.551L53.2956 36.4291L33.7275 86.7835L30.5159 86.8767L8.06075 37.7417ZM6.76247 37.7794L10.4865 37.6714L11.7436 65.674L12.3742 87.4031L8.20599 87.5241L6.76247 37.7794ZM50.9382 36.4975L54.6622 36.3894L56.1057 86.1341L51.9034 86.2561L51.2729 64.5269L50.9382 36.4975ZM78.6503 81.787L89.1983 48.1758L93.6057 48.0479L79.2032 91.4136C78.9088 92.2656 78.5259 93.2114 78.0545 94.2509C77.6059 95.2897 76.9966 96.2876 76.2265 97.2446C75.4799 98.2237 74.5229 99.0266 73.3557 99.6531C72.2119 100.302 70.7973 100.651 69.1118 100.7C68.6791 100.712 68.1194 100.671 67.4328 100.577C66.7696 100.505 66.2886 100.428 65.9899 100.346L65.8556 96.8959C66.1081 96.9569 66.4742 97.0033 66.9538 97.035C67.4335 97.0667 67.7644 97.0799 67.9466 97.0746C69.4271 97.0316 70.6612 96.745 71.6488 96.2149C72.6592 95.684 73.4916 94.9076 74.1458 93.8856C74.8007 92.8864 75.3686 91.6389 75.8495 90.1432L78.6503 81.787ZM66.9226 48.8222L79.6306 80.2198L80.8478 84.4587L77.924 86.2191L62.4811 48.9511L66.9226 48.8222Z" fill="black"/>
<path d="M33.928 106.612L33.9332 130.112L148.997 64.2993L33.9446 4.65732L33.9497 28.6573" stroke="black" stroke-width="5"/>
</svg>
