<svg width="259" height="218" viewBox="0 0 259 218" fill="none" xmlns="http://www.w3.org/2000/svg">
<path d="M63.0608 73.7417L67.2973 73.6188L86.9492 116.885L104.093 72.551L108.296 72.4291L88.7275 122.784L85.5159 122.877L63.0608 73.7417ZM61.7625 73.7794L65.4865 73.6714L66.7436 101.674L67.3742 123.403L63.206 123.524L61.7625 73.7794ZM105.938 72.4975L109.662 72.3894L111.106 122.134L106.903 122.256L106.273 100.527L105.938 72.4975ZM133.65 117.787L144.198 84.1758L148.606 84.0479L134.203 127.414C133.909 128.266 133.526 129.211 133.055 130.251C132.606 131.29 131.997 132.288 131.227 133.245C130.48 134.224 129.523 135.027 128.356 135.653C127.212 136.302 125.797 136.651 124.112 136.7C123.679 136.712 123.119 136.671 122.433 136.577C121.77 136.505 121.289 136.428 120.99 136.346L120.856 132.896C121.108 132.957 121.474 133.003 121.954 133.035C122.433 133.067 122.764 133.08 122.947 133.075C124.427 133.032 125.661 132.745 126.649 132.215C127.659 131.684 128.492 130.908 129.146 129.886C129.801 128.886 130.369 127.639 130.849 126.143L133.65 117.787ZM121.923 84.8222L134.631 116.22L135.848 120.459L132.924 122.219L117.481 84.9511L121.923 84.8222Z" fill="url(#paint0_linear_113_12)"/>
<path d="M88.9279 142.612L88.9331 166.112L203.997 100.299L88.9446 40.6573L88.9497 64.6573" stroke="url(#paint1_linear_113_12)" stroke-width="8"/>
<path d="M4.63147 88.0044C4.63147 157.04 60.5959 213.004 129.631 213.004C198.667 213.004 254.631 157.04 254.631 88.0044" stroke="url(#paint2_linear_113_12)" stroke-width="8"/>
<path d="M254.631 89.0458C254.594 55.7213 241.672 25.4438 220.631 3.03735" stroke="#FFBA08" stroke-width="8"/>
<path d="M4.63184 88.5C4.63184 56 17.8011 26.8253 37.9073 5" stroke="#FFBA08" stroke-width="8"/>
<defs>
<linearGradient id="paint0_linear_113_12" x1="102.122" y1="57.3675" x2="104.733" y2="147.33" gradientUnits="userSpaceOnUse">
<stop stop-color="#FFBA08"/>
<stop offset="1" stop-color="#D00000"/>
</linearGradient>
<linearGradient id="paint1_linear_113_12" x1="129.868" y1="24.5" x2="129.368" y2="183" gradientUnits="userSpaceOnUse">
<stop stop-color="#FFBA08"/>
<stop offset="1" stop-color="#D00000"/>
</linearGradient>
<linearGradient id="paint2_linear_113_12" x1="129.631" y1="88.0044" x2="129.631" y2="213.004" gradientUnits="userSpaceOnUse">
<stop stop-color="#FFBA08"/>
<stop offset="1" stop-color="#D00000"/>
</linearGradient>
</defs>
</svg>
