<svg width="260" height="220" viewBox="0 0 260 220" fill="none" xmlns="http://www.w3.org/2000/svg">
<path d="M4.99963 89.0044C4.99963 158.04 60.964 214.004 130 214.004C199.035 214.004 255 158.04 255 89.0044" stroke="black" stroke-width="10"/>
<path d="M254.999 90.0458C254.963 56.7213 242.04 26.4438 220.999 4.03735" stroke="black" stroke-width="10"/>
<path d="M5 89.5C5 57 18.1692 27.8253 38.2755 6" stroke="black" stroke-width="10"/>
<path d="M62.564 68.6981L71.242 68.4463L85.0797 104.598L96.7977 67.7047L105.476 67.4529L88.9482 117.719L81.9785 117.921L62.564 68.6981ZM57.8834 68.8339L66.5272 68.5831L69.1319 104.138L69.5423 118.282L59.3269 118.579L57.8834 68.8339ZM101.512 67.5679L110.19 67.3161L111.634 117.061L101.384 117.358L100.974 103.214L101.512 67.5679ZM130.851 112.331L139.704 79.2482L150.261 78.9419L136.634 121.909C136.342 122.852 135.938 123.867 135.423 124.953C134.93 126.039 134.242 127.073 133.359 128.056C132.499 129.062 131.394 129.891 130.046 130.546C128.72 131.2 127.077 131.555 125.118 131.612C124.185 131.639 123.42 131.605 122.824 131.508C122.229 131.411 121.518 131.272 120.692 131.091L120.483 123.882C120.734 123.875 120.996 123.867 121.269 123.859C121.543 123.874 121.805 123.878 122.056 123.871C123.354 123.833 124.409 123.654 125.22 123.334C126.031 123.014 126.679 122.54 127.162 121.91C127.646 121.304 128.022 120.518 128.29 119.552L130.851 112.331ZM125.799 79.6517L134.605 106.204L136.308 116.584L129.633 117.496L115.242 79.9581L125.799 79.6517Z" fill="black"/>
<path d="M86.928 137.612L86.9332 161.112L201.997 95.2993L86.9446 35.6573L86.9497 59.6573" stroke="black" stroke-width="10"/>
</svg>
