<svg width="158" height="140" viewBox="0 0 158 140" fill="none" xmlns="http://www.w3.org/2000/svg">
<path d="M8.06075 39.7417L12.2973 39.6188L31.9492 82.8853L49.0933 38.551L53.2956 38.4291L33.7275 88.7835L30.5159 88.8767L8.06075 39.7417ZM6.76247 39.7794L10.4865 39.6714L11.7436 67.674L12.3742 89.4031L8.20599 89.5241L6.76247 39.7794ZM50.9382 38.4975L54.6622 38.3894L56.1057 88.1341L51.9034 88.2561L51.2729 66.5269L50.9382 38.4975ZM78.6503 83.787L89.1983 50.1758L93.6057 50.0479L79.2032 93.4136C78.9088 94.2656 78.5259 95.2114 78.0545 96.2509C77.6059 97.2897 76.9966 98.2876 76.2265 99.2446C75.4799 100.224 74.5229 101.027 73.3557 101.653C72.2119 102.302 70.7973 102.651 69.1118 102.7C68.6791 102.712 68.1194 102.671 67.4328 102.577C66.7696 102.505 66.2886 102.428 65.9899 102.346L65.8556 98.8959C66.1081 98.9569 66.4742 99.0033 66.9538 99.035C67.4335 99.0667 67.7644 99.0799 67.9466 99.0746C69.4271 99.0316 70.6612 98.745 71.6488 98.2149C72.6592 97.684 73.4916 96.9076 74.1458 95.8856C74.8007 94.8864 75.3686 93.6389 75.8495 92.1432L78.6503 83.787ZM66.9226 50.8222L79.6306 82.2198L80.8478 86.4587L77.924 88.2191L62.4811 50.9511L66.9226 50.8222Z" fill="white"/>
<path d="M33.9279 108.612L33.9331 132.112L148.997 66.2993L33.9446 6.65732L33.9497 30.6573" stroke="white" stroke-width="8"/>
</svg>
